<svg xmlns="http://www.w3.org/2000/svg" version="1.1" xmlns:xlink="http://www.w3.org/1999/xlink" viewBox="0 0 200 200"><rect width="200" height="200" fill="url('#gradient')"></rect><defs><linearGradient id="gradient" gradientTransform="rotate(52 0.5 0.5)"><stop offset="0%" stop-color="#c96653"></stop><stop offset="100%" stop-color="#786b77"></stop></linearGradient></defs><g><g fill="#4e4dbe" transform="matrix(7.416822429906542,0,0,7.416822429906542,7.215786029300958,152.70089542709778)" stroke="#d8c1b3" stroke-width="0.75"><path d="M3.77-14.22L6.59-3.87L9.42-14.22L13.25-14.22L8.47 0L4.72 0L-0.03-14.22L3.77-14.22ZM21.62-3.78L21.62-3.78Q21.62-4.53 21.09-4.95Q20.56-5.37 19.22-5.82Q17.88-6.27 17.03-6.69L17.03-6.69Q14.27-8.05 14.27-10.42L14.27-10.42Q14.27-11.60 14.96-12.50Q15.64-13.41 16.90-13.91Q18.16-14.41 19.74-14.41L19.74-14.41Q21.27-14.41 22.49-13.87Q23.70-13.32 24.38-12.31Q25.05-11.30 25.05-10L25.05-10L21.63-10Q21.63-10.87 21.10-11.35Q20.57-11.83 19.66-11.83L19.66-11.83Q18.74-11.83 18.21-11.42Q17.68-11.02 17.68-10.39L17.68-10.39Q17.68-9.84 18.26-9.40Q18.85-8.96 20.32-8.48Q21.80-8.01 22.74-7.46L22.74-7.46Q25.05-6.13 25.05-3.80L25.05-3.80Q25.05-1.93 23.64-0.87Q22.24 0.20 19.79 0.20L19.79 0.20Q18.06 0.20 16.66-0.42Q15.25-1.04 14.55-2.12Q13.84-3.20 13.84-4.61L13.84-4.61L17.28-4.61Q17.28-3.47 17.87-2.92Q18.46-2.38 19.79-2.38L19.79-2.38Q20.63-2.38 21.13-2.75Q21.62-3.12 21.62-3.78Z"></path></g></g></svg>